<?xml version="1.0" encoding="UTF-8" standalone="no"?>
<!DOCTYPE svg PUBLIC "-//W3C//DTD SVG 1.1//EN" "http://www.w3.org/Graphics/SVG/1.1/DTD/svg11.dtd">
<svg width="100%" height="100%" viewBox="0 0 1024 1024" version="1.1" xmlns="http://www.w3.org/2000/svg" xmlns:xlink="http://www.w3.org/1999/xlink" xml:space="preserve" xmlns:serif="http://www.serif.com/" style="fill-rule:evenodd;clip-rule:evenodd;stroke-linejoin:round;stroke-miterlimit:2;">
    <g id="Version-1" serif:id="Version 1" transform="matrix(1,0,0,1,0,-1020)">
        <g>
            <g id="light">
                <path id="Right-copy" serif:id="Right copy" d="M533.099,1839.33L528.236,1839.33L528.236,1638.48C528.236,1584.47 572.018,1540.69 626.025,1540.69L761.659,1540.69C772.674,1540.69 781.602,1549.62 781.602,1560.63L781.602,1620.75C781.602,1757.99 670.344,1839.33 533.099,1839.33ZM747.229,1508.78L657.366,1508.78C586.05,1508.78 528.236,1450.97 528.236,1379.65L528.236,1377.48C528.236,1304.13 587.7,1244.67 661.054,1244.67C727.631,1244.67 781.602,1298.64 781.602,1365.21L781.602,1474.41C781.602,1493.39 766.213,1508.78 747.229,1508.78Z" style="fill:rgb(69,89,83);"/>
                <path id="Left-copy" serif:id="Left copy" d="M367.828,1509.09L278.132,1509.09C259.155,1509.09 243.771,1493.71 243.771,1474.73L243.771,1365.36C243.771,1298.8 297.723,1244.85 364.275,1244.85C437.602,1244.85 497.044,1304.3 497.044,1377.62L497.044,1379.88C497.044,1451.24 439.192,1509.09 367.828,1509.09ZM263.34,1540.69L397.05,1540.69C452.12,1540.69 496.764,1585.33 496.764,1640.4L496.764,1839.33L496.67,1839.33C356.791,1839.33 243.397,1755.85 243.397,1615.98L243.397,1560.63C243.397,1549.62 252.326,1540.69 263.34,1540.69Z" style="fill:rgb(255,105,95);"/>
                <path id="Shine" d="M512.991,1465.22L515.936,1475.49C520.741,1492.26 540.791,1512.31 557.56,1517.12L567.834,1520.06L557.559,1523C540.791,1527.81 520.74,1547.86 515.936,1564.63L512.991,1574.9L510.047,1564.63C505.242,1547.86 485.192,1527.81 468.424,1523L458.148,1520.06L468.423,1517.12C485.192,1512.31 505.242,1492.26 510.047,1475.49L512.991,1465.22Z" style="fill:rgb(37,47,43);fill-rule:nonzero;"/>
            </g>
        </g>
    </g>
</svg>
